<?xml version="1.0" standalone="no"?>
<!DOCTYPE svg PUBLIC "-//W3C//DTD SVG 20010904//EN"
 "http://www.w3.org/TR/2001/REC-SVG-20010904/DTD/svg10.dtd">
<svg version="1.0" xmlns="http://www.w3.org/2000/svg"
 width="200.000000pt" height="200.000000pt" viewBox="0 0 200.000000 200.000000"
 preserveAspectRatio="xMidYMid meet">
<metadata>
Created by potrace 1.14, written by Peter Selinger 2001-2017
</metadata>
<g transform="translate(0.000000,200.000000) scale(0.100000,-0.100000)"
fill="#000000" stroke="none">
<path d="M554 1600 l-29 -5 -3 -560 c-3 -510 -1 -563 14 -592 13 -24 26 -34
53 -40 20 -3 212 -6 428 -6 352 0 395 2 418 17 14 9 30 28 35 42 14 37 13 207
-2 222 -7 7 -39 12 -75 12 l-63 0 0 326 c0 368 -1 374 -71 413 -36 20 -40 27
-38 56 5 56 -5 60 -155 60 -75 0 -136 2 -137 5 -3 25 -8 43 -13 47 -7 7 -323
10 -362 3z m311 -123 c-1 -34 0 -68 3 -74 3 -10 48 -13 177 -13 155 0 175 -2
196 -19 l24 -19 5 -446 5 -446 -341 0 c-280 0 -343 2 -347 14 -3 7 -6 250 -7
539 l-1 526 88 3 c48 2 112 2 143 0 l56 -4 -1 -61z m138 4 c4 -1 7 -8 7 -16 0
-11 -11 -15 -38 -15 -44 0 -56 8 -42 25 8 10 29 12 73 6z m155 -14 c3 -14 -5
-17 -42 -17 -32 0 -46 4 -46 13 0 20 6 23 47 22 27 -1 39 -7 41 -18z m261
-906 c0 -90 -5 -101 -39 -101 -39 0 -50 23 -50 104 l0 65 45 -1 45 -1 -1 -66z"/>
<path d="M659 1493 c-25 -6 -32 -45 -12 -60 9 -7 20 -13 24 -13 10 0 39 29 39
39 0 15 -35 37 -51 34z"/>
<path d="M755 1486 c-13 -9 -16 -20 -11 -39 7 -29 33 -36 54 -15 32 32 -7 80
-43 54z"/>
<path d="M654 1255 c-4 -8 -4 -22 0 -30 5 -13 43 -15 260 -15 238 0 256 1 265
18 21 39 -1 42 -266 42 -216 0 -254 -2 -259 -15z"/>
<path d="M655 1100 c-3 -6 -3 -19 0 -30 6 -20 14 -20 263 -18 l257 3 3 28 3
27 -260 0 c-164 0 -262 -4 -266 -10z"/>
<path d="M661 943 c-13 -9 -14 -16 -5 -30 10 -17 31 -18 263 -18 213 0 253 2
261 15 6 10 5 20 -5 29 -19 20 -489 23 -514 4z"/>
<path d="M660 786 c-17 -17 -11 -36 13 -44 17 -6 464 -9 500 -3 4 0 7 12 7 26
0 14 -3 26 -7 26 -42 8 -505 3 -513 -5z"/>
<path d="M663 633 c-16 -6 -17 -39 -2 -48 6 -4 121 -7 255 -8 206 0 248 2 260
15 14 14 14 17 0 31 -14 13 -51 15 -258 15 -134 0 -249 -2 -255 -5z"/>
</g>
</svg>
